<svg viewBox="0 0 1024 1176.463" xmlns="http://www.w3.org/2000/svg"><path d="M813.793 806.675c-40.43 36.31 4.56 73.1 44.427 49.664 8.877-9-.24-40.63-44.387-49.665zM233.48 865.3c31.35 27.152 79.857-6.76 94.373-44.628-30.39-40.39-144.237 1.478-94.373 44.625zm596.948-95.572c0 17.994 132.522 29.79 132.522-4.24-12.713-23.44-37.136-39.092-65.214-39.092-29.74 0-55.38 17.56-67.118 42.875l-.19.458zm-406.962-698.8L69.168 433.462c-119.686 148.237 81.496 131.002 167.71 173.67 30.953 31.63-118.565 54.984-87.615 86.616 30.912 31.63 187.066 60.94 218.058 92.532 30.913 31.63-63.34 65.18-32.39 96.772 30.912 31.67 102.49 1.68 115.887 74.7 9.517 52.144 128.923 22.393 187.306-20.315 30.95-31.632-59.183-28.673-28.232-60.304 76.9-78.656 148.558-28.552 174.87-107.41 12.997-38.948-113.246-60.022-82.256-91.653 89.016-51.985 396.647-85.816 250.648-231.773L585.98 70.928C564.89 50.8 536.262 38.414 504.74 38.414S444.592 50.8 423.46 70.97l.045-.043zm141.04 25.47l140.16 142.36c6.612 7.32 10.66 17.067 10.66 27.76 0 7.22-1.846 14.01-5.09 19.922l.108-.215-69.58-55.664-13.677 82.418-58.183-30.673-93.093 58.783-30.83-123.963-50.026 86.535h-76.498c-31.19 0-34.83-39.588-6.518-67.9 49.466-53.385 106.25-107.81 137.12-139.36 14.898-14.498 35.267-23.44 57.725-23.44s42.826 8.942 57.742 23.458l-.02-.018zM338.687 626.81c9.477 5.877 152.676 34.99 187.666 40.787 12.116 2.56 3.52 15.036-13.196 23.473-37.708 10.037-220.614-64.26-174.47-64.26z"/></svg>